<svg width="24" height="24" viewBox="0 0 24 24" fill="none" xmlns="http://www.w3.org/2000/svg">
<circle cx="12" cy="12" r="12" fill="black"/>
<path d="M14.6279 14.0933L18.8233 18.0125H16.3648L16.1745 17.9377L13.3659 15.3141C12.632 14.6284 11.436 14.6284 10.7021 15.3141L7.89361 17.9377L7.70329 18.0125H5.24477L9.44015 14.0933C10.8744 12.7535 13.1937 12.7535 14.6279 14.0933ZM7.70987 6.52298L7.9003 6.5979L10.6965 9.213C11.4336 9.9023 12.6345 9.9023 13.3715 9.213L16.1678 6.5979L16.3582 6.52298H18.8227L14.637 10.4376C13.1978 11.7836 10.8703 11.7836 9.43106 10.4376L5.24533 6.52298H7.70987Z" fill="white"/>
</svg>
