<svg width="24" height="24" viewBox="0 0 24 24" fill="none" xmlns="http://www.w3.org/2000/svg">
<circle cx="12" cy="12" r="12" fill="#F7931A"/>
<path d="M15.8188 11.4058C16.6468 10.97 17.1649 10.2025 17.0439 8.92387C16.8809 7.17652 15.4205 6.59059 13.577 6.42372L13.5766 4H12.1482L12.1478 6.35998C11.772 6.35998 11.3889 6.36761 11.0075 6.37552L11.0072 4.00032L9.58009 4.00018L9.57982 6.42331C9.27053 6.42984 8.9668 6.43604 8.67022 6.43604V6.42887L6.7 6.42804L6.70027 8.00348C6.70027 8.00348 7.75511 7.98299 7.73773 8.00288C8.31609 8.0033 8.50493 8.35026 8.55925 8.64975L8.55969 11.4109V15.2894C8.53422 15.4773 8.42707 15.7776 8.02267 15.7782C8.04107 15.7949 6.9836 15.778 6.9836 15.778L6.70027 17.5397H8.5588C8.90511 17.5401 9.24538 17.5457 9.5792 17.5484L9.58045 19.9996L11.0072 20L11.0068 17.5745C11.3993 17.5828 11.7782 17.5864 12.1483 17.5859L12.1479 20H13.5763L13.5771 17.5529C15.978 17.4105 17.6589 16.7856 17.8679 14.4562C18.0364 12.5809 17.182 11.7437 15.8188 11.4058ZM11.0416 8.10982C11.8472 8.10982 14.3808 7.8448 14.3812 9.58333C14.3808 11.2501 11.848 11.0554 11.0416 11.0554V8.10982ZM11.041 15.7901L11.0416 12.5424C12.0096 12.5421 15.0454 12.2547 15.0458 14.1655C15.0462 15.998 12.0096 15.7894 11.041 15.7901Z" fill="white"/>
</svg>
